<svg width="57" height="57" viewBox="0 0 57 57" fill="none" xmlns="http://www.w3.org/2000/svg">
<path d="M53.8222 28.5C53.8222 14.5149 42.4851 3.17778 28.5 3.17778V0.822224C43.786 0.822224 56.1778 13.214 56.1778 28.5H53.8222ZM28.5 3.17778C14.5149 3.17778 3.17778 14.5149 3.17778 28.5H0.822222C0.822222 13.214 13.214 0.822224 28.5 0.822224V3.17778ZM3.17778 28.5C3.17778 42.4851 14.5149 53.8222 28.5 53.8222V56.1778C13.214 56.1778 0.822222 43.786 0.822222 28.5H3.17778ZM28.5 53.8222C42.4851 53.8222 53.8222 42.4851 53.8222 28.5H56.1778C56.1778 43.786 43.786 56.1778 28.5 56.1778V53.8222ZM26.6692 16.0087L38.5569 27.8964L36.8912 29.562L25.0036 17.6743L26.6692 16.0087ZM38.5569 27.8964L38.6313 27.9708L36.9657 29.6364L36.8912 29.562L38.5569 27.8964ZM38.6313 27.9708L38.6713 28.0108L37.0057 29.6764L36.9657 29.6364L38.6313 27.9708ZM37.8606 29.907H37.7241V27.5514H37.8606V29.907ZM37.7241 29.907H9.57143V27.5514H37.7241V29.907ZM38.6713 29.5964L38.6313 29.6364L36.9657 27.9708L37.0057 27.9308L38.6713 29.5964ZM38.6313 29.6364L26.6692 41.5985L25.0036 39.9329L36.9657 27.9708L38.6313 29.6364Z" fill="#24292E"/>
</svg>
