<svg width="57" height="57" viewBox="0 0 57 57" fill="none" xmlns="http://www.w3.org/2000/svg">
<path d="M3.17778 28.5C3.17778 42.4851 14.5149 53.8222 28.5 53.8222V56.1778C13.214 56.1778 0.822224 43.786 0.822224 28.5H3.17778ZM28.5 53.8222C42.4851 53.8222 53.8222 42.4851 53.8222 28.5H56.1778C56.1778 43.786 43.786 56.1778 28.5 56.1778V53.8222ZM53.8222 28.5C53.8222 14.5149 42.4851 3.17778 28.5 3.17778V0.822222C43.786 0.822222 56.1778 13.214 56.1778 28.5H53.8222ZM28.5 3.17778C14.5149 3.17778 3.17778 14.5149 3.17778 28.5H0.822224C0.822224 13.214 13.214 0.822222 28.5 0.822222V3.17778ZM30.3308 40.9913L18.4431 29.1036L20.1088 27.438L31.9964 39.3257L30.3308 40.9913ZM18.4431 29.1036L18.3687 29.0292L20.0343 27.3636L20.1088 27.438L18.4431 29.1036ZM18.3687 29.0292L18.3287 28.9892L19.9943 27.3236L20.0343 27.3636L18.3687 29.0292ZM19.1394 27.093H19.2759V29.4486H19.1394V27.093ZM19.2759 27.093L47.4286 27.093V29.4486L19.2759 29.4486V27.093ZM18.3287 27.4036L18.3687 27.3636L20.0343 29.0292L19.9943 29.0692L18.3287 27.4036ZM18.3687 27.3636L30.3308 15.4015L31.9964 17.0671L20.0343 29.0292L18.3687 27.3636Z" fill="#24292E"/>
</svg>
