<svg width="214" height="173" viewBox="0 0 214 173" fill="none" xmlns="http://www.w3.org/2000/svg">
<path d="M90.4141 49.901C86.5495 -2.35924 50.2024 -5.78823 31.3261 23.8715C12.4499 53.5313 12.0528 64.9574 12.0528 64.9574C12.0528 64.9574 28.0707 113.123 67.6415 81.823C107.212 50.5228 34.1097 171.579 34.1097 171.579C48.6377 168.977 94.2788 102.161 90.4141 49.901Z" fill="#E0E0E0"/>
<path d="M189.414 50.901C185.549 -1.35924 149.202 -4.78823 130.326 24.8715C111.45 54.5313 111.053 65.9574 111.053 65.9574C111.053 65.9574 127.071 114.123 166.642 82.823C206.212 51.5228 133.11 172.579 133.11 172.579C147.638 169.977 193.279 103.161 189.414 50.901Z" fill="#E0E0E0"/>
</svg>
