<?xml version="1.0" encoding="UTF-8"?>
<svg viewBox="0 0 600.06317 244.27122" xmlns="http://www.w3.org/2000/svg" xmlns:xlink="http://www.w3.org/1999/xlink">
 <defs>
  <filter id="d" x="-.02026" y="-.1612" width="1.0405" height="1.3224">
   <feGaussianBlur stdDeviation="4.1845"/>
  </filter>
  <linearGradient id="a">
   <stop stop-color="#374548" offset="0"/>
   <stop stop-color="#1c2422" offset="1"/>
  </linearGradient>
  <linearGradient id="c" x1="764.84" x2="771.09" y1="305.31" y2="311.35" gradientTransform="matrix(.85582 .19251 -.19251 .85582 92.031 -103.54)" gradientUnits="userSpaceOnUse" xlink:href="#a"/>
  <linearGradient id="b" x1="712.96" x2="778.94" gradientTransform="matrix(.86744 .13051 -.13051 .86744 62.665 -56.88)" gradientUnits="userSpaceOnUse" xlink:href="#a"/>
 </defs>
 <g transform="translate(-121.83 -246.02)">
  <path transform="matrix(.8772 0 0 .8772 17.945 39.508)" d="m172.4 443.87c0 7.8381 14.705-6.1276 22.516-6.7785 32.267-2.689 65.669-1.3885 98.081-2.7114 30.562-1.2474 60.542-2.2988 91.008-2.2988 33.02 0 63.106-0.35599 96.136 3.183 28.92 3.0986 58.076 0.0172 87 2.8293 17.12 1.6645 34.389-3.3901 51.516 0.11789 3.5936 0.73605 13.181 8.6084 16.799 11.199 5.428 3.8877 11.56 8.9222 15.856 13.616 3.6618 4.0009 2.6438 5.7004 0.53049 11.376-1.4358 3.8561-7.6121 6.3768-10.846 7.8395-9.635 4.3588-18.888 4.7339-29.412 7.0143-14.484 3.1382-29.364 0-44.207 0-25.835 0-51.967 1.1725-77.805 2.3578-28.539 1.3091-57.138 1.8862-85.703 1.8862-22.225 0-43.846-1.9099-65.898-4.5387-17.293-2.0614-32.688-2.0031-49.984-1.2378-18.453 0.81653-36.155 2.4484-54.581 1.2968-14.408-0.90053-28.904 0.70733-43.323 0.70733-4.6871 0-8.2013-2.0626-12.673-3.4777-5.7714-1.8264-10.595-3.0236-16.504-4.5387-3.5708-0.91559-1.1571-15.127-0.76626-17.212 0.88875-4.7401 6.2956-9.3454 8.252-13.97 1.0096-2.3864 2.6529-4.4521 4.0081-6.6607z" fill="#666" fill-rule="evenodd" filter="url(#d)" stroke="#000" stroke-width=".86913"/>
  <path d="m176.63 395.71s97.479 5.1739 194.35 5.1739 193.13-5.1739 193.13-5.1739l0.06873 51.941s-114.38 5.2375-191.03 4.9014c-76.108-0.33608-195.34-6.2458-195.34-6.2458l-1.185-50.596z" fill="#cdde87" fill-opacity=".98204" fill-rule="evenodd" stroke="#000" stroke-width=".80945"/>
  <path d="m179.22 331.75c2.6973-0.35128 5.6967 1.229 8.4272 1.9985 2.8091 0.79168 5.0905 3.1799 5.76 6.0032 0.79681 3.3605-1.343 7.0223-1.1246 10.433 0.13884 2.1694 1.3889 5.6948 2.9028 7.2343 2.17 2.2068 7.3215 2.6591 10.152 3.336 3.9809 0.95197 8.0407 1.401 12.044 2.2189 3.0779 0.62883 6.7168-0.13157 9.5138 1.3602 1.2887 0.68732 1.5706 1.1664 2.6444 2.0669 1.3809 1.1582 1.1854 4.9975 1.1854 6.6492 0 4.5098-4.9605 2.5858-7.7053 2.1125-6.057-1.0443-12.013-1.882-18.139-2.4317-5.216-0.46811-10.402-1.0883-15.623-1.5198-4.5894-0.3793-12.017 0.25225-14.438-4.5898-1.6344-3.2688 0.13518-8.0772 1.1626-11.277 1.1125-3.4647 1.1702-7.1259 1.1702-10.73 0-2.7243-0.08658-5.7246-0.33435-8.4501-0.12237-1.3461-0.0369-2.7287 0.88147-3.602 0.26858-0.25537 0.55922-0.6743 0.7447-0.86629 0.03778-0.03911 0.09624 0.05066 0.77509 0.0532z" fill="#666" fill-rule="evenodd" stroke="#000" stroke-width=".76241"/>
  <path d="m124.26 325.32c-6.3068 15.695 3.5372 108.69 6.3259 128.58 14.027 2.2202 36.47 2.0533 45.402 2.6948 0.37452-21.164 3.0897-41.412 4.2956-47.836 4.3341-12.868-0.47237-19.021 1.8308-29.945 2.0466-13.864 6.5917-43.999 3.248-47.437-3.2074-3.2985-17.288-4.2297-24.558-4.5114-17.745-1.6293-20.511-2.7952-36.545-1.5434z" fill="#eef4d7" fill-opacity=".98204" fill-rule="evenodd" stroke="#000" stroke-width=".72473"/>
  <path d="m181.93 394.96 0.43725-13.717 1.7594-17.182s22.65 0.21588 45.029 3.5152c23.19 3.4188 24.297 6.1491 47.604 8.638 21.284 2.2727 26.119 5.5438 49.558 5.8089 21.553 0.24239 34.278 0.33409 43.568-0.28862 1.3664 4.7854 2.7114 2.8264 3.3001 6.1313s-1.6524 3.9058-1.6524 3.9058l-1.5266 5.1636 1.2404 8.4336s-21.913-0.70293-43.681-1.0907-31.528 0.33931-51.064-2.5055c-15.085-2.1967-94.572-6.8124-94.572-6.8124z" fill="#cdde87" fill-opacity=".98204" fill-rule="evenodd" stroke="#000" stroke-width=".85977"/>
  <path d="m141.59 454.93c1.257 2.9422 2.1163 6.1136 1.5647 9.326-0.01304 2.8347 0.64583 7.0843 0.97382 9.8823 5.5056-1.2619 10.784 0.68989 16.309 0.44164 1.575-2.4468 1.1956-7.1867 2.0177-9.9543 0.37325-2.7707 1.7683-5.6043 1.9284-8.2358-2.8323-0.08721-5.7837 0.18005-8.6779-0.15529-4.13-0.27913-8.2381-0.81278-12.369-1.0857" fill="#28220b" fill-opacity=".98204" fill-rule="evenodd" stroke="#000" stroke-width=".85977"/>
  <path d="m574.7 456.36c1.4091 2.8725 2.4332 5.9946 2.0503 9.2314 0.13524 2.8315 1.0155 7.0408 1.4893 9.8178 5.432-1.5481 10.805 0.12496 16.31-0.41193 1.4448-2.5258 0.81807-7.2394 1.4943-10.046 0.22783-2.7864 1.4728-5.6891 1.495-8.3254-2.833 0.06104-5.7664 0.4823-8.6742 0.29879-4.1389-0.06274-8.2693-0.38079-12.408-0.4373" fill="#28220b" fill-opacity=".98204" fill-rule="evenodd" stroke="#000" stroke-width=".85977"/>
  <path d="m533.68 345.52c3.1704-2.2569 8.7421-4.7495 12.794-7.3691 1.7587-1.1369 3.0134-2.1761 4.9981-3.0758 3.8667-1.7529 4.1989 1.3518 4.7204 4.336 0.64688 3.7017 1.9714 7.39 3.2252 10.893 1.1872 3.3173 1.3054 6.9794 1.1107 10.445-0.17595 3.1318-0.89608 5.9129-0.49127 9.0778 0.23883 1.8673-5.0402 2.251-6.6641 2.6272-6.844 1.5858-14.108 1.9764-21.103 2.4136-4.4562 0.27852-8.6331-1.8199-12.666-3.3748-3.7834-1.4587-8.5429-1.1289-12.41-0.3204-4.4155 0.92326-9.086 0.07116-7.668-5.7244 0.86696-3.5433 7.534-7.7168 10.616-8.8215 4.7847-1.7153 8.2514-3.2949 12.324-6.3011 2.9174-2.1533 5.2195-4.0073 8.7146-5.3612 1.2878-0.49888 0.37294-0.3733 2.499 0.55535z" fill="#666" fill-rule="evenodd" stroke="#000" stroke-width=".76241"/>
  <path d="m553.27 334.92c1.2699 19.884 9.0901 94.997 11.43 122.78 13.509 0.04088 36.439-2.8617 44.927-3.5722 3.1159-20.769 3.0753-32.234 4.4634-47.98 1.1488-13.032 0.91792-18.018 1.464-28.777-0.13045-13.524 6.7905-44.969 3.1394-47.753-3.5023-2.6708-23.984 0.56064-30.857 1.3682-16.915 1.073-19.687 0.37063-34.567 3.9376z" fill="#eef4d7" fill-opacity=".98204" fill-rule="evenodd" stroke="#000" stroke-width=".69437"/>
  <path d="m371.42 405.45s0.0204-0.9739 0.05686-2.6342-1.1688-4.5102-1.1046-7.2559 3.7873-3.2492 3.8704-6.5054-1.509-3.4885-0.15796-6.9318c13.849 2.3261 38.136-2.0331 48.605-1.9821 15.717 0.07278 26.398-2.1069 40.287-4.7863 29.26-5.6448 29.846-5.7232 51.652-9.0588 23.304-3.5646 41.598-3.4237 41.598-3.4237l3.1209 34.396s-70.881 3.1161-93.894 5.0039c-22.882 1.8771-45.173 3.128-62.809 3.1489l-31.224 0.02894z" fill="#cdde87" fill-opacity=".98204" fill-rule="evenodd" stroke="#000" stroke-width=".85977"/>
  <path d="m433.15 376.07c6.9709-3.8323 19.335-7.0924 24.839-14.021 9.9566-4.7288 15.004-11.548 21.685-16.487 17.069-11.291 27.581-16.9 47.052-21.953 12.918-2.897 26.571-3.3733 39.646-2.7905 9.3431-0.614 18.739-1.3513 27.886 0.20826-6.6401 4.0788-12.681 10.241-20.84 11.118-7.19 2.6668-16.8 0.24622-21.585 7.6167-4.2668 6.9908-9.3742 13.664-17.526 16.317-9.5905 4.0646-18.919 8.7359-28.605 12.558-11.5 1.5912-22.946 3.4575-34.394 5.3425-11.991 0.55808-23.228 4.2996-35.362 4.8539-2.4133 1.8528-6.8975-1.577-2.7939-2.7623z" fill="#d3c7b0" fill-rule="evenodd" stroke="#000" stroke-width=".85977"/>
  <path d="m431.94 377.59c13.486-3.5096 28.919-13.691 42.831-15.894 22.506-8.3807 44.252-18.63 65.973-28.846 12.343-5.6589 26.375-5.978 38.793-11.589 4.2867-1.0638 8.7309-1.4974 13.142-1.2629" fill="#d3c7b0" fill-rule="evenodd" stroke="#000" stroke-width=".85977"/>
  <path d="m159.6 313.52c6.8068 1.1595 13.504 2.9188 20.213 4.418 5.4487-0.38479 11.089-0.20862 15.481 3.5045 6.3868 3.5379 12.676 8.2948 14.994 15.531 2.6946 5.658 4.3571 11.851 7.2132 17.37 2.0331 3.3575 14.411 9.9196 14.778 12.434-6.2352-0.92083-28.276-2.7586-34.161-3.9174-11.086-1.5804-11.712-3.9073-10.348-12.008-0.11366-4.4825-1.0834-2.8779-0.01313-11.293 0.65484-5.8989-5.9807-12.696-11.679-11.895-8.8052-1.1606-16.214-2.6225-17.618-10.681-0.15617-1.2711 0.5315-2.4137 1.139-3.4628z" fill="#d3c7b0" fill-rule="evenodd" stroke="#000" stroke-width=".85977"/>
  <path d="m160.09 314c5.4914-0.96905 9.4697 3.5662 14.005 5.7737 6.5112 3.8343 13.624 6.8765 19.398 11.79 3.184 4.097 6.7403 7.8273 10.411 11.475 3.2688 3.806 6.1881 7.8476 8.6886 12.188 2.6386 3.7049 5.871 6.9695 9.8866 9.1828l9.0054 1.883" fill="none" stroke="#000" stroke-width=".85977"/>
  <path d="m485.81 300.72c8.2526-7.2011 32.244-10.001 40.924-16.57 6.2101-4.3785 13.938-8.1106 21.322-3.993 11.666 2.774 23.672 3.8285 35.329 6.721 10.42 2.6394 21.146 4.0229 31.426 7.1669 8.8042 4.2189 19.032 4.8252 27.24 10.392 8.9186 3.9915 19.023 4.7326 27.654 9.4558" fill="#c83737" fill-rule="evenodd" stroke="#000" stroke-width=".8772"/>
  <path d="m648.63 312.8c4.5654-0.50299 8.1272-1.0482 9.9358-4.8128 1.8622-4.1531 4.3782-7.941 6.7763-11.787 2.1583-4.0021 4.5662-7.8707 7.5299-11.328 1.9584-2.7475 3.5852-5.9216 6.5194-7.7794 4.2303-0.91523 8.3151 1.4904 12.019 3.2051 4.2004 1.5467 5.9496 5.615 6.0408 9.799 1.0711 5.1817 2.5284 10.586 1.0228 15.842-0.62128 4.5311-1.9508 9.1683-5.3484 12.427-2.8815 3.1546-6.434 5.9993-7.8505 10.182-2.4214 3.4851-5.7116 6.2599-8.1637 9.7272-2.3442 3.7424-6.8688 4.6227-10.897 3.5166-4.2721-0.61786-7.472-3.6548-11.365-5.1585-4.1777-1.1945-8.7499-0.6105-12.818-2.323-2.2106-1.9029-6.7235-3.72-3.3989-7.0712 1.7424-3.5832 3.4432-7.2713 4.0392-11.246 1.8597-1.2906 4.0109-2.0582 5.9588-3.1942z" fill="url(#b)" fill-rule="evenodd"/>
  <path d="m668.56 311.62c4.5468 0.64996 8.1321 1.0091 10.821-2.1864 2.8379-3.5584 6.2181-6.6002 9.4984-9.7273 3.0871-3.3384 6.3827-6.4853 10.114-9.0958 2.581-2.1731 4.9472-4.842 8.2516-5.9105 4.3249 0.16726 7.6818 3.5145 10.842 6.0977 3.6828 2.5442 4.3635 6.92 3.4098 10.995-0.25323 5.2852-0.18795 10.882-2.9553 15.598-1.7303 4.2336-4.1729 8.3935-8.2751 10.703-3.5764 2.3375-7.7255 4.2077-10.139 7.9062-3.2131 2.7721-7.0908 4.64-10.329 7.3873-3.2024 3.0406-7.8038 2.7662-11.43 0.69157-3.9836-1.6624-6.3262-5.4006-9.7222-7.8266-3.7485-2.1974-8.3221-2.7706-11.835-5.4424-1.667-2.3935-5.5851-5.2774-1.5305-7.6949 2.58-3.0363 5.1458-6.1846 6.7129-9.8855 2.1226-0.78673 4.3971-0.99432 6.5666-1.6094z" fill="url(#c)" fill-rule="evenodd"/>
  <g transform="matrix(.8772 0 0 .8772 51.802 36.43)" fill-rule="evenodd" stroke="#000">
   <path d="m176.68 337.78c3.777-0.82848 7.0037 1.5722 10.834 1.9933 2.3475 0.32382 4.4876 5.8066 6.2887 7.6124 2.4755 2.4819 1.8716 4.1362 4.7721 2.754 3.662-1.7451 8.2971-7.9613 11.694-10.582 2.4161-1.8642 2.0967-1.3242 2.8188-3.3117 0.1839-0.50608-1.9336-2.4-2.2631-2.7881-2.2801-2.6854-5.4803-3.4626-7.2867-6.9687-0.74917-1.454-1.7518-2.6053-2.4928-3.8847-0.45404-0.78392-0.70792-1.3467-1.0261-1.9519-1.0476-1.9929 0.06877-2.0014-2.7602 0.12507-3.2019 2.4068-6.7281 4.0831-9.7834 6.8502-2.3708 2.1472-4.8086 3.7487-6.9728 6.3594-2.7808 1.4863-2.8524 0.86889-3.8219 3.7927z" fill="#e9c6af" stroke-width="1.3099"/>
   <path d="m163.96 266.27c-8.6874-6.083-21.911 0.23197-28.006 7.1606-6.0004 2.7847-7.559 10.581-6.9878 16.774 0.44846 9.8909 5.9218 18.498 12.494 25.864 3.0588 3.8214 7.6318 8.1366 11.527 10.613 6.3374 4.0279 11.868 8.2672 22.371 13.361 10.28-2.3227 21.8-8.6108 32.419-17.715 0.68634-5.7625-5.4255-13.762-7.9695-18.707-8.7464-11.653-11.13-4.3626-16.609-16.973-14.667-7.5754 18.983-4.0097-19.24-20.377z" fill="#e9c6af" stroke-width="1.1576"/>
   <path d="m198.03718,304.91287 1.76642-.79533c1.14405-.51512 1.67761-.4774 2.69431-1.18685 .74139-.51735 1.30672-1.2951 1.85385-1.95698 .44384-.53695.8289-1.24334 1.26094-1.75016 .64456-.75613 1.15755.45138 1.47914.62733 .62227.34046.09693,1.14417.13853,1.63535 .05614.66267-.80057,1.19551-1.15077,1.61143-.3221.38254-.91547.8503-1.28515,1.26579-.47432.53309.75991.55555.84343.61661 .54043.39509 1.26263-.42183 1.71247-.66809 .75983-.41598 1.4531-.57877 2.24134-.8068 1.02206-.29568 1.39452.14504 2.1104.40656 .74897.27361-.29999,2.08717-.41751,2.36676-.28744.6839-2.11056,1.29059-2.74938,1.71801-.58213.38952-1.41059.67032-2.00201,1.05145-.79802.51427-1.6158,1.01845-2.39913,1.55467-.56369.38586-.32203,1.46193-.38256,1.7174" fill="#e9c6af" stroke-width="1.1037"/>
   <path d="m183.25 290c4.2717-0.61238 9.7845-1.3955 11.542 0.69292 1.5294 1.8176 5.3447 2.2126 5.1119 4.0351-0.60974 4.7738-1.3849 3.5361-1.5392 4.1603-0.80791 2.8165-4.0109 2.6714-6.0814 3.5811" fill="#e9c6af" stroke-width=".85959"/>
   <path d="m169.34 287.53 1.3541 1.5337c1.6015 1.8138 4.6829 2.7028 6.9089 2.8386 1.5278 0.09324 3.4681-1.3576 4.7216-2.1579 0.72575-0.46335 1.9259-1.6475 2.2138-1.9266" fill="#e9c6af" stroke-width="1.1037"/>
   <path d="m179.34 270.97c1.6018 1.1639 10.355 3.3326 5.7756 4.5872-4.2413 1.162-7.9452-2.3493-11.476-4.0459-2.7036-1.2992-4.1745-1.5022-5.852 0.98216-1.0623 1.5732-0.68977 3.8126-0.94738 5.6801-0.31201 2.2618 3.8331 1.9564-0.9274 3.0276-2.5787 0.58024-4.8024 1.2532-7.3996 2.0386-3.9205 1.1856-2.3354 4.6265-6.6282 5.0706-0.72334 0.07482-3.5117 3.9437-3.6731 5.8611-0.0803 0.95406 2.3125 3.6635 2.9093 4.2495 5.735 5.6313 2.2718 1.3993 7.2468 10.024 0.65788 1.1405-2.6073 2.3383-3.5167 4.1135-1.0935 2.1344-0.9095 4.4784-3.7497 6.1978-11.449 2.6919-8.7393 1.846-13.053-3.4844-2.9117-2.1681-8.6993-6.8842-9.0576-10.571-0.52792-5.4332-3.5904-10.303-3.813-15.745 1.4097-6.1541-1.3093-9.5211 1.9678-15.487 1.7757-3.1324 5.7601-5.561 8.5711-7.4953 4.4929-3.0918 7.0782-4.4659 12.352-5.6076 5.4312-1.1758 13.968 2.3666 19.367 3.4604 4.9244 0.99774 8.265 2.1933 12.248 5.4415 0.43103 0.35151-0.22743 1.1361-0.34422 1.7034" fill="#502d16" stroke-width="1.1037"/>
   <path d="m153.01 318 1.5619 1.2641c1.261 1.0206 2.8657 1.9881 4.2501 2.8384 1.2779 0.78484 2.2579 0.87711 3.559 0.37061 0.9071-0.35313 1.0756-1.7145 1.299-2.3136 0.09577-0.25675-0.05079-0.54568-0.07619-0.81852" fill="#e9c6af"/>
   <path d="m210.88 296.88c1.0568-2.7178 5.0404-6.2838 8.0722-8.7025 0.94462-0.75359 1.737-1.6803 2.6056-2.5205" fill="#e9c6af"/>
   <path d="m215.07 300.29c3.718-2.9661 8.5526-6.4765 12.074-9.554" fill="#e9c6af"/>
   <path d="m221.55 277.51c1.2085-0.7339 0.33394-3.0547 1.3732-4.0133 3.3389-3.0797 4.0717 1.6129 4.4802 3.7537 0.4955 2.5969-4.9289-0.67335 4.2061-2.4135 7.5815-1.4442-2.9379 9.0815 2.2754 4.7008 3.9711-3.3368 10.636 1.0279 5.9504 5.2372-0.74018 0.66499 2.2684-0.36663 2.9653 0.34365 3.5677 3.6364-7.5481 5.9598-8.1178 5.9155" fill="#f2f2f2"/>
  </g>
  <path d="m229.75 328.46c6.2278 0.26854 7.3748-8.5356 12.782-10.699 11.191-9.0442 26.944-5.4354 39.567-9.0646 17.173-4.9375 26.078-1.3245 37.23-7.9418 7.1081-3.6146 14.853-4.9222 22.76-6.4219 6.9485 0.2353 17.073 0.05501 20.111 7.7248 1.1085 6.2216 4.4368 11.657 5.7896 17.767 1.079 5.3962-0.2423 10.99 0.35863 16.335 2.7754 7.5893-1.6267 15.307-1.1312 22.922 1.791 7.206 4.513 16.934-2.7635 20.47-12.868 3.3357-28.799 0.10642-41.546-0.53855-9.9297-1.441-19.988 0.83032-29.845-1.2615-9.7459-1.8221-20.219-4.3033-30.094-5.2869-6.0769-1.0108-16.8 0.02133-21.699-3.8808-6.6229-3.0282-8.8593-2.6421-17.38-14.022-2.7804-7.1309 1.8434-17.265 4.4492-24.11l0.65167-1.0269 0.76054-0.96424z" fill="#c83737" fill-rule="evenodd" stroke="#000" stroke-width=".4386"/>
  <path d="m442.46 317.52c36.081-11.53 62.701-27.9 88.808-31 13.893-2.8083 13.591 3.5122 29.193 2.5213 7.2936 0.42818 36.447-1.4018 54.135 4.0576 22.783 7.032 54.221 19.565 58.436 21.528 5.3658 20.357 1.9218 19.153-9.9969 34.731-14.962-4.4227-33.231-11.999-42.579-20.364-19.916 0.04327-42.556 3.4254-69.059-1.9988-26.96-2.1745-27.678 2.6516-55.161 14.336-26.966 11.464-31.654 18.664-44.557 28.85-23.312 12.749-78.808 10.663-88.301 10.025 0.07165-7.146-5.3134-22.572-1.2776-37.361s-3.8921-25.915 1.2487-37.531c2.5776-0.35104 10.984-1.501 14.955-4.934 9.7948-0.64151 19.898 1.5038 28.992 3.165 19.033 3.975 19.826 10.667 35.164 13.976z" fill="#c83737" fill-rule="evenodd" stroke="#000" stroke-width=".8772"/>
  <path d="m451.07 315.78c-1.1577 0.68061-6.9264 0.83679-10.33 1.4248-2.8332 0.48949-1.9754 1.9356-7.4801 2.1372-2.2647 0.08293-3.3246 2.3984-5.3429 3.2057-1.79 0.71602-3.5494 2.4871-5.6991 3.5619-2.4066 1.2033-4.0747 1.1077-6.7677 1.781" fill="#6f8a91" fill-rule="evenodd" stroke="#000" stroke-width=".8772"/>
  <path d="m363.06 301.88c3.1798 0.91776 6.9506-1.1873 9.7426 1.177 1.6716 4.0539-0.10791 8.4348 0.43598 12.639 0.27313 3.099 0.80912 6.2863-0.13983 9.3254-0.57742 5.108-1.0989 10.226-1.8398 15.31-0.77435 7.2224-2.5655 14.588-0.6628 21.798 0.6929 3.6379 2.2516 7.0603 3.3998 10.524 0.56693 2.249 3.3188 8.2422-1.3286 6.9077-2.8214-0.69007-8.9151-0.13667-8.0372-4.3796 0.43643-3.0631-1.4117-5.7009-2.0817-8.5859-1.2032-3.8216-1.2147-7.8457-0.83516-11.793 0.29224-3.4702-0.41559-6.8814-0.92586-10.286-0.51809-6.6167 0.5077-13.531-0.27444-20.124-0.43756-3.2427-0.18458-6.511 0.44124-9.706 0.30196-3.4838-0.16775-7.3015 1.9545-10.337 0.41446-0.73185 0.77314-1.7325 0.15115-2.4696z" fill-rule="evenodd" stroke="#000" stroke-width=".4386"/>
  <path d="m358.60188,316.55069c1.6847-.89615 4.25936-1.35968 6.36789-1.88681 1.26488-.31623 3.03911.03833 4.29967.19956 .73841.09446 1.53531.04768 2.24962.09071 .94562.05698 1.26749,2.12479 1.52393,2.88464 .91342,2.70647.1907,1.31692-.10885,2.34038-.18584.63499-4.35575.61166-5.11606.50799-2.48496-.33887-4.64775-1.22983-7.18428-1.10669-.83273.04042-1.19525,1.80244-1.41508,2.35851-.31748.80304-1.29318-.51877-1.41508-.58056-.57986-.2939-.45362-2.26157-.48984-2.84835-.09029-1.46258-.89503-.62819 1.28808-1.95938z" fill="#6f8a91" fill-rule="evenodd" stroke="#000" stroke-width=".4386"/>
  <path d="m373.96 341.08c-0.13786-2.2333-4.2262 1.4838-6.386 2.0682-1.199 0.32443-2.269 0.55397-3.5014 0.68941-0.80064 0.08798-1.8868-0.22628-2.7213-0.27214-2.4056-0.13217 1.4217 4.7064 1.2881 7.1118-0.06803 1.2246-0.04706-1.0692 1.3969-1.9594 1.6812-1.0364 4.4157-0.60659 6.2227-0.25399 1.474 0.28762 2.9476 0.31983 4.4267 0.48985 1.8048 0.20745-0.63406-3.6111-0.52612-5.4246 0.06775-1.1383 0.08045-1.0142-0.19956-2.4492z" fill="#6f8a91" fill-rule="evenodd" stroke="#000" stroke-width=".4386"/>
  <path d="m363.85 375.55z" fill-rule="evenodd" stroke="#000" stroke-width=".4386"/>
  <path d="m364.25031,375.42719c.07155-1.20193.09652,2.47897.63498,3.5559 .90591,1.81187 3.92769-1.1272 5.95061-1.23368 1.85919-.09785 3.78714.29373 5.64219.39914 1.21793.0692.3785-.66334-.03628-1.9231-.39603-1.20274-.76467-2.19703-1.21553-2.93906-.17157-.2824-2.7206-.09071-3.15672-.09071-1.6978,0-3.30425.76863-4.8258,1.45138-.81552.36595-2.16732.57614-2.99345.78013" fill="#6f8a91" fill-rule="evenodd" stroke="#000" stroke-width=".4386"/>
  <path d="m530.6 325.26c-3.0588-0.31516-2.6752-0.81793-3.3112-3.6636-0.12392-0.55439-3.852-1.9946-4.6263-2.4189-1.8945-1.0381-2.2439-2.223-3.8044-3.734-0.14785-0.14316-0.52485-0.4471-0.63407-0.54013" fill="#6f8a91" fill-rule="evenodd" stroke="#000" stroke-width=".8772"/>
  <path d="m532.92 324.22c-2.8576-2.767-1.1622-6.2884-1.2446-9.793-0.02054-0.87318-2.5662-3.0767-2.9355-4.3916-0.3176-1.1307-0.47663-2.3001-0.70452-3.4522" fill="#6f8a91" fill-rule="evenodd" stroke="#000" stroke-width=".8772"/>
  <path d="m538.21 324.03c0.15657-0.18788 0.15657-0.18788 0 0-1.415 1.698-0.75292-7.87 1.6204-13.363 1.0547-2.4409 3.1256-6.3931 3.8983-8.196 0.18833-0.43944 0.04697 0.95503 0.07045 1.4325" fill="#6f8a91" fill-rule="evenodd" stroke="#000" stroke-width=".8772"/>
  <path d="m385.07 338.97c0.82095 3.6735 2.3252 7.1488 2.8416 10.803 0.49636 3.5127 0.53671 1.0878 3.0764-1.0803 0.58468-0.49912 2.9556 1.5585 3.1938 1.7848 0.56541 0.53716 2.9365-1.812 3.8748-2.5128 1.1475-0.85702 0.83508-0.56191 1.6439-1.6909 1.1767-1.6426-0.32873-1.9491-0.63406-2.8651-0.18063-0.54187-4.5812-2.5947-5.3543-3.2408-1.2346-1.0317-2.7026-1.841-4.0627-2.7242-2.4218-1.5726-2.294-1.2698-4.5794 1.5265z" fill="#e6e6e6" fill-rule="evenodd" stroke="#000" stroke-width=".4386"/>
  <path d="m379.36 336.81c2.7646 0.17135 5.9569 1.2256 8.83 2.3484 3.1822 1.2436 5.4199 3.725 8.2194 5.5658 2.3871 1.5696 4.5895 5.5394 5.6127 8.0316 0.80497 1.9608 1.9934-1.113 2.4188-1.8787 1.0994-1.9789 2.3437-3.6438 3.9923-5.0726 0.88379-0.76596-1.8315-1.4727-2.6067-2.3484-1.4325-1.6183-2.8663-2.774-4.3445-4.3446-2.2068-2.3447-6.1614-3.4472-9.1587-4.4151-2.4146-0.77972-4.4168-2.4502-6.5285-3.687-0.89602-0.52482-1.7811-0.91838-2.6067-1.3151-0.08804-0.04232-2.4624 4.448-2.7476 4.9082-0.43155 0.69635-0.72018 1.4717-1.0803 2.2075" fill="#e6e6e6" fill-rule="evenodd" stroke="#000" stroke-width=".4386"/>
  <path d="m451.44 342.9c0.14504 0.25785 0.67461 0.67311 0.62772 1.116-0.37509 3.5424 3.2917 2.7628 5.1264 5.2485 1.9996 2.7092 3.9066 5.3588 5.9459 8.1779l1.1857 1.6391-1.4472 0.78466c-1.8901 1.0248-7.8341-0.89377-9.7645-1.6216-3.2028-1.2076-5.5614-3.4915-8.2824-5.2136-1.7438-1.1037 3.8142 1.5776 5.7192 2.3714" fill="none" opacity=".79" stroke="#000" stroke-width=".8772"/>
  <path d="m380.69 372.2c6.6057 2.1093 14.4 2.461 21.28 1.3908 7.2326-1.1251 14.29-2.01 21.459-3.5367 3.4316-0.73082 6.9255-1.2413 10.392-1.8479 3.2656-0.57149 5.4024-0.80342 8.3251 0.15896 1.7712 0.58322-1.2638 3.1485-1.8677 3.4573-2.5161 1.2867-5.9303 1.2787-8.643 2.4042-5.3762 2.2306-11.41 1.4499-17.008 2.7221-4.5793 1.0408-8.4598 1.0323-13.332 1.2518-2.6399 0.11891-5.3994 1.1521-8.1463 1.3312-2.0363 0.13281-4.2576-0.31652-6.3184-0.5166-1.9914-0.19335-3.5214-0.47487-5.5236-0.1987-0.90935 0.12543-0.79261-1.9989-0.8345-2.4837-0.12298-1.423 0.32643-2.6225 0.21856-4.1328z" fill="#c83737" fill-rule="evenodd"/>
  <path d="m461.74 355.18c-0.15212-1.7602 12.621-8.7943 15.359-10.352 5.2693-2.9981 11.262-4.7742 16.074-8.6034 2.6712-2.1255 9.7356-3.375 13.173-4.5302 3.38-1.1359 6.5855-2.3782 10.074-3.199 2.2247-0.52345 4.3834-1.1084 6.5767-1.6293 3.019-0.71703 6.2402-1.5299 9.6166-1.5299 4.3504 0 9.5835-0.20502 13.491-2.1856 2.8676-1.4535 7.329-0.17137 10.431 0.55634 4.6909 1.1004 10.86 0.5991 15.577-0.03973 5.2989-0.71757 10.47-0.56826 15.776 0.03973 4.1356 0.47389 8.1952 0.0611 12.319-0.13908 4.4609-0.21655 10.607 0.05512 14.465 2.3446 1.9421 1.1525-1.1952 1.6416-2.6028 2.1062-2.7598 0.91074-9.1668-1.0553-12.359-0.89413-6.6927 0.33802-13.672-2.0861-20.445-2.3446-3.0262-0.11551-6.7473-0.15012-9.5173 0.37751-4.7684 0.90828-9.0636 0.84451-13.948 0.15896-8.1154-1.139-16.443-0.93101-24.618-1.2716-8.3725-0.34887-13.769-0.78223-19.949 4.0732-5.3842 4.2306-15.093 3.8188-21.339 5.166s-10.237 5.0734-14.862 9.4578c-3.0365 2.8788-6.3788 5.2072-8.7821 8.5637-1.5219 2.1255-2.3938 2.6479-4.5103 3.8745z" fill="#c83737" fill-rule="evenodd"/>
  <path d="m624.96 329.44c0.13246-0.13246 0.13246-0.13246 0 0-1.8364 1.8365 5.1854 1.1211 7.3714 2.5234 3.9802 2.5534 6.825 3.2967 10.988 4.1924 4.9221 1.0592 9.9486 1.6777 14.644 3.497 2.8488 1.1039 5.0624 1.3399 7.7291 2.8214 1.6094 0.89414-0.01489 1.7032-1.3114 2.8214-1.1572 0.99809-2.6988 1.2227-4.0533 1.4902-2.0323 0.40146-6.3042-2.161-7.9874-3.1195-2.2816-1.2993-4.095-3.2318-6.3184-4.6097-2.9663-1.8383-6.6055-2.142-9.6166-3.8149-2.5464-1.4147-4.3434-2.6184-7.2125-3.2387-1.0121-0.21884-3.4952-2.095-4.2321-2.5632z" fill="#c83737" fill-rule="evenodd"/>
  <path d="m230.88 337.24c-0.08053 12.748-1.2094 22.295 4.6552 33.729 3.2428 12.127 12.171 34.827 15.186 46.976 4.1296 9.7578 7.7222 5.2487 14.9 12.531 13.82 11.685 28.944 21.716 42.257 34.038 6.551 4.8894 13.985 8.4118 20.671 13.144 11.061 7.8351 24.945 7.8961 37.858 8.9948 6.9892-0.19002 14.422 2.0818 21.042-0.85141 8.7557-3.1864 2.7117-18.503-3.423-16.97-11.639-0.91811-23.057 5.382-37.31 2.16-7.7071-7.0724-13.055-8.4936-20.241-16.265-7.228-7.0295-10.99-15.17-18.285-22.095-5.6032-4.7587-3.0744-4.9673-33.918-21.899 0.26497-4.5749-4.4456-13.749-3.5739-26.931-1.4759-11.911-0.93439-20.575-6.7699-31.215-4.7389-12.527-9.3348-17.474-24.576-19.568-3.5224-0.42291-5.1393 2.9815-8.4723 4.2227z" fill="#e9c6af" fill-rule="evenodd" stroke="#000" stroke-width=".88306"/>
  <path transform="translate(121.83 246.02)" d="m115.94 83.469c-0.51711 0.04693-1.0618 0.15699-1.5938 0.34375-3.0762 0.61522-5.5918 9.5531-8.0625 11.688-1.7028 11.005 1.4398 14.739 2.625 25.562 1.0116 4.8313 1.563 9.7936 1.6875 14.75 2.5031 9.7958 1.1321 19.789 3.9062 29.5 2.3783 6.4637 2.0095 4.6863 3.6562 9.8125 1.5048 0.42493 3.943 4.445 6.5 4.0101 15.124 12.284 67.861 50.702 77.125 53.552 10.751 3.3081-0.8125-14.875-0.8125-14.875l15.719-5.7812s-46.309-40.528-55.406-49.625c-2.4878-2.4878-5.612-3.6793-8.8125-4.0938-0.73627-7.4283-0.73623-11.085-3.2812-17.312-3.2083-11.318 0.28224-26.925-6.6875-35.75-4.5403-6.5579-11.097-11.366-16.938-16.75-2.761-2.4914-6.0053-5.3598-9.625-5.0312z" fill="#c83737" fill-rule="evenodd" stroke="#000" stroke-width=".94211"/>
  <path d="m364.65 479.02c-0.27781-0.0681 8.6901 3.3819 13.681 4.4829 1.826 0.40281 3.7343 0.5444 5.4631 1.2236 0.2315 0.09094-1.8578 2.8801-1.9105 2.9409-1.0503 1.2108-3.1269 1.2592-4.4864 1.9642-1.7542 0.90962-4.8895-1.2869-6.4505-1.9856-4.0157 0.16356-6.8215-2.7109-9.8512-3.4296-1.5945 1.5337-8.6014-3.425-8.5012-3.3713" fill="#e9c6af" fill-rule="evenodd" stroke="#000" stroke-width=".8772"/>
  <path d="m390.35 473.98c-0.05237 0.05971-0.05237 0.05971 0 0 0.07018-0.08002-1.595 1.3917-3.5276 1.89-1.8559 0.47863-3.9813-0.87784-5.8845-0.87784-1.247 0-5.9509 0.65593-7.0856 0.93565" fill="#e9c6af" fill-rule="evenodd" stroke="#000" stroke-width=".68563"/>
  <path d="m389.18 479.96c-1.5791 0-3.6124 0.6455-5.4524 0.47475-1.9689-0.18271-3.4808-1.1298-5.3503-1.5049-4.6615-0.93535-5.4667-0.83655-0.58924-0.28664" fill="#e9c6af" fill-rule="evenodd" stroke="#000" stroke-width=".68563"/>
  <path d="m279.67 366.06c0.07008-0.31651-1.771-0.52503-2.483-0.57844" fill="#e6e6e6" fill-rule="evenodd"/>
  <path d="m273.82 365.96c4.7348 0.37574 12.862 1.1804 18.637 2.6242 11.408 2.852 22.718 3.1226 34.198 5.0931 6.3718 1.0937 13.089 2.1163 19.582 2.1163 2.3083 0 5.0858-0.86318 7.1952-1.6507 0.89303-0.33341 3.7848 0.76401 1.0158 1.7212-4.172 1.4422-8.0591 1.7494-12.5 1.7494-5.873 0-11.495-0.19877-17.339-0.77597-6.7654-0.6682-13.566-1.8499-20.344-2.61-6.2134-0.69684-12.374-2.9769-18.651-2.9769-4.4185 0-4.0364 1.857-7.83 0.98759-1.9422-0.44511-3.834-0.70115-4.7544-2.5677-0.4826-0.9786 0.54308-2.8746 0.79005-3.7105z" fill="#c83737" fill-rule="evenodd"/>
  <path d="m199.59 273.1c-8.2755 3.0314-7.4479 2.2736-18.206 15.157s-8.2755 12.883-8.2755 19.704 9.103 14.399-4.9653 8.3363-25.654-12.883-25.654-25.009 9.9253-4.5471 8.2702-22.735-30.614-22.735-6.6152-21.978 43.857 5.7861 47.167 7.3018 10.761 18.465 8.2786 19.223z" fill="#c83737" stroke="#0c2323" stroke-opacity=".88312" stroke-width=".95757"/>
  <path transform="translate(121.83 63.903)" d="m76.086 199.24s6.6162-4.1351 9.9243-4.1351 14.059 9.9243 9.9243 14.059-13.232 5.7892-13.232 5.7892l-9.0973 5.7892s-0.82702 14.059-4.9622 14.886 0 1.654-0.82702 7.4432 4.9622 8.2703-1.654 12.405-11.578 11.578-16.541 4.1351-4.9622-6.6162-4.9622-18.195 19.849-31.427 19.849-31.427l11.578-10.751z" fill="#fff" stroke="#0c2323" stroke-opacity=".88312"/>
 </g>
</svg>
