<?xml version="1.0" encoding="iso-8859-1"?>
<!DOCTYPE svg PUBLIC "-//W3C//DTD SVG 1.1//EN" "http://www.w3.org/Graphics/SVG/1.1/DTD/svg11.dtd">
<svg version="1.1" id="Capa_1" xmlns="http://www.w3.org/2000/svg" xmlns:xlink="http://www.w3.org/1999/xlink" x="0px" y="0px"
	 viewBox="0 0 60.015 60.015" style="enable-background:new 0 0 60.015 60.015;" xml:space="preserve">
<path fill="#04a763" d="M42.007,0h-24c-9.925,0-18,8.075-18,18v14c0,9.925,8.075,18,18,18h1.78c6.968,0,13.519,2.713,18.446,7.64l1.876,1.877
	c0.326,0.325,0.758,0.498,1.198,0.498c0.22,0,0.44-0.043,0.652-0.13c0.636-0.264,1.047-0.879,1.047-1.568v-8.344
	c9.462-0.521,17-8.383,17-17.973V18C60.007,8.075,51.932,0,42.007,0z M58.007,32c0,8.485-6.644,15.429-15,15.949V44
	c0-0.552-0.447-1-1-1s-1,0.448-1,1v4v1v8.585l-1.359-1.359C34.343,50.921,27.29,48,19.788,48h-1.78c-8.822,0-16-7.178-16-16V18
	c0-8.822,7.178-16,16-16h24c8.822,0,16,7.178,16,16V32z"/>
<g>
</g>
<g>
</g>
<g>
</g>
<g>
</g>
<g>
</g>
<g>
</g>
<g>
</g>
<g>
</g>
<g>
</g>
<g>
</g>
<g>
</g>
<g>
</g>
<g>
</g>
<g>
</g>
<g>
</g>
</svg>
