<svg enable-background="new 0 0 60.015 60.015" viewBox="0 0 60.015 60.015" xmlns="http://www.w3.org/2000/svg"><path fill="#04a763" d="m42.007 0h-24c-9.925 0-18 8.075-18 18v14c0 9.59 7.538 17.452 17 17.973v8.344c0 .688.411 1.304 1.047 1.568.212.087.433.13.652.13.44 0 .873-.173 1.198-.498l1.876-1.876c4.928-4.928 11.479-7.641 18.447-7.641h1.78c9.925 0 18-8.075 18-18v-14c0-9.925-8.075-18-18-18zm16 32c0 8.822-7.178 16-16 16h-1.78c-7.502 0-14.556 2.921-19.86 8.226l-1.359 1.359v-8.585-1-4c0-.552-.447-1-1-1s-1 .448-1 1v3.949c-8.356-.52-15-7.465-15-15.949v-14c0-8.822 7.178-16 16-16h24c8.822 0 16 7.178 16 16v14z" /></svg>
