<svg width="167" height="167" viewBox="0 0 167 167" fill="none" xmlns="http://www.w3.org/2000/svg">
<rect width="166.285" height="166.285" transform="translate(0.0557861 0.378662)" fill="#1C2730"/>
<path opacity="0.2" d="M165.89 83.523C165.89 129.2 128.863 166.228 83.1863 166.228C37.5096 166.228 0.48175 129.2 0.48175 83.523C0.48175 37.8468 37.5096 0.818939 83.1863 0.818939C128.862 0.818939 165.89 37.8468 165.89 83.523" fill="#3CC8C8"/>
<path fill-rule="evenodd" clip-rule="evenodd" d="M88.7516 42.5808C89.8625 40.4707 87.3102 37.9159 85.2193 39.0172C83.5184 39.7018 83.0867 42.1888 84.4106 43.4471C85.6601 44.7582 88.1064 44.3008 88.7516 42.5808ZM65.4783 43.5118C65.6078 42.1135 63.9999 40.938 62.7298 41.4661C60.9617 41.9419 60.7655 44.7546 62.4808 45.4256C63.7754 46.147 65.6131 45.0298 65.4783 43.5118ZM108.79 45.4681C106.805 45.2259 106.491 42.0736 108.402 41.4389C109.884 40.7088 111.244 42.078 111.461 43.4971C111.15 44.7089 110.146 45.8185 108.79 45.4681ZM72.6735 54.2898C73.0001 51.7985 69.97 49.778 67.8465 51.1347C65.8578 52.1619 65.5844 55.2264 67.3889 56.5622C69.2553 58.2629 72.5631 56.8054 72.6735 54.2898ZM100.264 52.574C101.211 50.1078 105.05 50.0332 106.128 52.434C107.194 54.3022 105.883 56.6158 103.984 57.251C101.468 57.7253 99.0792 54.9786 100.264 52.574ZM86.3962 53.2674C84.4018 53.4118 82.4903 54.9913 82.5109 57.1111C82.3972 58.8432 83.6223 60.258 85.0771 60.9795C85.2236 60.9883 85.3719 61.0002 85.5213 61.0122C86.343 61.0781 87.1965 61.1466 87.936 60.728C89.847 59.8743 90.7862 57.3131 89.7285 55.4531C89.1611 54.1047 87.7192 53.5354 86.3962 53.2674ZM49.0656 60.2001C51.0054 58.9956 53.6225 61.1939 52.8881 63.3224C52.4838 65.1635 50.0336 65.9126 48.633 64.7371C47.1378 63.6358 47.3748 60.988 49.0656 60.2001ZM125.05 62.4851C125.246 60.3861 122.53 58.9055 120.884 60.1962C119.195 61.2437 119.379 64.0399 121.178 64.8568C122.812 65.8423 125.16 64.3989 125.05 62.4851ZM91.9163 64.0067C94.6322 63.0212 97.8579 64.2005 99.4058 66.6463C101.448 69.6362 100.361 74.1897 97.1926 75.9054C93.9093 77.9345 89.115 76.2145 87.9024 72.5109C86.5257 69.1953 88.5312 65.046 91.9163 64.0067ZM84.4965 67.2117C83.0426 64.1016 78.9918 62.8975 75.9818 64.3327C72.7738 65.7799 71.2979 70.049 72.9599 73.192C74.4421 76.4422 78.763 77.7741 81.8257 76.0172C84.8845 74.4542 86.2075 70.2389 84.4965 67.2117ZM60.0266 69.8424C60.2554 67.8836 62.0849 66.6088 63.9307 66.477C65.9194 66.7193 67.508 68.2794 67.7244 70.3124C67.5939 72.3251 66.0542 74.2922 63.9426 74.2801C61.6196 74.4822 59.5829 72.1478 60.0266 69.8424ZM112.744 70.3098C112.85 67.5423 109.538 65.501 107.153 66.9032C104.592 68.1227 104.4 72.1563 106.867 73.5885C109.242 75.3086 112.907 73.2421 112.744 70.3098ZM69.4969 77.2378C72.2862 76.4626 75.4755 77.7906 76.8435 80.3803C78.342 82.987 77.7295 86.6083 75.4021 88.5202C72.4171 91.3246 66.912 90.1986 65.3233 86.3714C63.4977 82.863 65.7152 78.1613 69.4969 77.2378ZM107.075 79.9905C105.618 77.4953 102.432 76.4395 99.7207 77.223C95.9106 78.2768 93.8932 83.1597 95.8982 86.6148C97.5521 89.955 102.208 91.0767 105.213 88.9405C108.083 87.1008 109.003 82.8443 107.075 79.9905ZM51.5569 80.4793C53.9663 79.5587 56.6371 82.2444 55.661 84.6573C55.0647 86.8555 51.9977 87.668 50.4134 86.0473C48.5594 84.5255 49.2458 81.1392 51.5569 80.4793ZM120.302 80.0667C118.255 80.1782 116.794 81.9641 116.864 83.9806C117.264 84.9211 117.75 85.9027 118.697 86.3892C120.719 87.5152 123.577 85.8862 123.426 83.4898C123.557 81.6753 121.952 80.3308 120.302 80.0667ZM39.7101 81.6629C41.1596 81.0238 42.9526 82.2928 42.6217 83.9188C42.544 85.76 39.853 86.4678 38.8644 84.9295C37.9909 83.8611 38.5138 82.2138 39.7101 81.6629ZM134.17 82.6243C133.766 81.4198 132.128 80.8922 131.108 81.6262C129.409 82.5415 130.075 85.7092 132.133 85.5198C133.599 85.7422 134.856 83.9398 134.17 82.6243ZM77.3705 90.4641C81.1848 89.4621 85.285 92.6749 85.309 96.6421C85.558 100.651 81.5196 104.206 77.6151 103.28C74.597 102.789 72.2289 99.8525 72.3267 96.772C72.3186 93.8256 74.5198 91.0871 77.3705 90.4641ZM100.509 96.6918C100.57 92.633 96.3475 89.3625 92.4761 90.4556C90.1809 91.0317 88.2373 92.9426 87.7302 95.2925C86.7258 98.8188 89.3803 102.811 92.9778 103.281C96.8008 104.062 100.713 100.627 100.509 96.6918ZM63.3513 92.8976C66.0303 92.4359 68.5418 95.4549 67.4554 98.0243C66.663 100.762 62.7181 101.505 60.9741 99.2685C58.9283 97.1207 60.4555 93.1942 63.3513 92.8976ZM112.789 96.7137C112.972 94.0949 110.04 92.0076 107.651 93.0183C104.764 93.9452 104.283 98.3911 106.928 99.9018C109.264 101.585 112.884 99.5965 112.789 96.7137ZM120.033 105.563C119.097 103.802 120.796 101.468 122.732 101.794C123.643 101.778 124.295 102.462 124.884 103.08L124.987 103.188C124.994 103.247 125.001 103.306 125.009 103.366C125.134 104.371 125.278 105.522 124.468 106.281C123.304 107.77 120.666 107.345 120.033 105.563ZM53.0641 105.019C53.4709 102.882 50.8672 101.068 49.0579 102.284C47.3344 103.171 47.273 105.943 48.9389 106.916C50.4911 107.988 52.8478 106.908 53.0641 105.019ZM84.8027 106.24C87.1713 105.184 90.189 107.267 89.9645 109.902C90.14 112.814 86.4077 114.831 84.0919 113.082C81.5194 111.581 81.9482 107.163 84.8027 106.24ZM72.788 113.201C72.9717 110.921 70.2644 109.069 68.2469 110.141C66.8257 110.677 66.2462 112.261 66.2213 113.683C66.7072 114.988 67.6953 116.36 69.2106 116.393C71.04 116.67 72.8494 115.074 72.788 113.201ZM101.783 110.174C103.857 108.879 106.806 110.739 106.61 113.178C106.663 115.727 103.331 117.36 101.399 115.686C99.5287 114.373 99.7571 111.218 101.783 110.174ZM109.276 121.306C107.778 121.627 106.692 123.327 107.614 124.737C108.562 126.375 111.327 125.789 111.502 123.879C111.755 122.468 110.481 121.553 109.276 121.306ZM61.3211 123.512C61.6885 122.395 62.5788 121.284 63.8816 121.574C65.7806 121.71 66.3442 124.601 64.6821 125.492C63.1875 126.51 61.4535 125.116 61.3211 123.512ZM87.5346 123.215C86.1378 122.337 84.0186 123.141 83.655 124.795C82.9906 126.466 84.586 128.485 86.3546 128.276C87.3062 128.3 88.0411 127.616 88.6129 126.931C88.7242 126.469 88.8374 126.007 88.964 125.545L88.9562 125.516C88.721 124.636 88.4473 123.611 87.5346 123.215Z" fill="#3CC8C8"/>
</svg>
