<svg width="235" height="235" viewBox="0 0 235 235" fill="none" xmlns="http://www.w3.org/2000/svg">
<path opacity="0.2" d="M186.525 71.221C212.055 109.371 201.819 160.998 163.666 186.532C125.526 212.05 73.8978 201.817 48.3715 163.666C22.8341 125.517 33.0636 73.8886 71.2086 48.3643C109.361 22.8324 160.991 33.071 186.523 71.223L186.525 71.221Z" fill="#F7931A"/>
<path fill-rule="evenodd" clip-rule="evenodd" d="M127.111 92.4055C122.306 86.5329 115.478 88.0547 108.235 92.0338L102.408 83.326L97.1063 86.8748L102.78 95.353C101.388 96.2843 99.9822 97.265 98.586 98.2401L92.8756 89.7051L87.5779 93.2499L93.4015 101.957C92.2696 102.748 91.1569 103.524 90.0585 104.26L90.0397 104.233L82.7274 109.123L86.5171 114.783C86.5171 114.783 90.3813 112.089 90.3645 112.205C92.5119 110.768 94.0459 111.546 94.9677 112.487L101.607 122.407C101.755 122.308 101.953 122.185 102.192 122.069L101.633 122.443L110.93 136.342C111.288 137.081 111.612 138.424 110.114 139.43C110.222 139.445 106.26 142.008 106.26 142.008L109.444 149.044L116.343 144.426C117.123 143.906 117.899 143.398 118.668 142.896L118.669 142.896L118.67 142.895C119.167 142.57 119.661 142.247 120.149 141.925L126.046 150.732L131.342 147.189L125.511 138.474C126.984 137.533 128.399 136.603 129.771 135.682L135.574 144.358L140.874 140.81L134.992 132.018C143.561 125.543 148.297 119.123 143.471 110.241C139.587 103.084 134.406 102.197 128.534 104.366C130.557 100.743 130.633 96.6998 127.11 92.4068L127.111 92.4055ZM132.296 116.201C136.34 122.241 126.759 128.459 122.38 131.302L122.379 131.302C121.987 131.556 121.637 131.784 121.342 131.982L113.535 120.312C113.896 120.07 114.327 119.767 114.816 119.422L114.816 119.422C119.193 116.341 128.162 110.028 132.297 116.199L132.296 116.201ZM110.839 114.398C114.502 112.033 122.484 106.878 118.813 101.389C115.057 95.7735 107.595 101.059 103.951 103.64C103.541 103.93 103.18 104.186 102.877 104.389L109.959 114.972C110.209 114.805 110.506 114.613 110.839 114.398Z" fill="#F7931A"/>
</svg>
