<svg width="167" height="167" viewBox="0 0 167 167" fill="none" xmlns="http://www.w3.org/2000/svg">
<rect width="166.285" height="166.285" transform="translate(0.55312 0.458649)" fill="#1C2730"/>
<path opacity="0.2" d="M166.387 83.603C166.387 129.28 129.36 166.308 83.6837 166.308C38.0069 166.308 0.979061 129.28 0.979061 83.603C0.979061 37.9268 38.0069 0.898926 83.6837 0.898926C129.359 0.898926 166.387 37.9268 166.387 83.603" fill="#505050"/>
<g opacity="0.8">
<path d="M83.4191 45.2278L82.9083 46.9641V97.3473L83.4191 97.8572L106.806 84.0331L83.4191 45.2278Z" fill="white"/>
<path d="M83.4195 45.2277L60.0322 84.0329L83.4195 97.8572V73.4028V45.2277Z" fill="white"/>
<path d="M83.4191 105.466L83.1313 105.817V123.765L83.4191 124.606L106.821 91.6491L83.4191 105.466Z" fill="white"/>
<path d="M83.4194 124.606V105.466L60.0321 91.649L83.4194 124.606Z" fill="white"/>
<path d="M83.4191 97.8571L106.806 84.0331L83.4191 73.403V97.8571Z" fill="white"/>
<path d="M60.0321 84.033L83.419 97.8572V73.4029L60.0321 84.033Z" fill="white"/>
</g>
</svg>
